<svg width="30" height="30" viewBox="0 0 30 30" fill="none" xmlns="http://www.w3.org/2000/svg">
<path d="M21.0625 6.375H8.6875C7.73828 6.375 7 7.14844 7 8.0625V20.4375C7 21.3867 7.73828 22.125 8.6875 22.125H13.5039V16.7812H11.2891V14.25H13.5039V12.3516C13.5039 10.1719 14.8047 8.94141 16.7734 8.94141C17.7578 8.94141 18.7422 9.11719 18.7422 9.11719V11.2617H17.6523C16.5625 11.2617 16.2109 11.9297 16.2109 12.6328V14.25H18.6367L18.25 16.7812H16.2109V22.125H21.0625C21.9766 22.125 22.75 21.3867 22.75 20.4375V8.0625C22.75 7.14844 21.9766 6.375 21.0625 6.375Z" fill="#46B19D"/>
<rect x="0.5" y="0.5" width="29" height="29" rx="3.5" stroke="#212121"/>
</svg>
