<svg width="30" height="30" viewBox="0 0 30 30" fill="none" xmlns="http://www.w3.org/2000/svg">
<path d="M17.5703 13.3008H11.1719V15.6211H15.0039C14.8633 16.6055 13.8438 18.5391 11.1719 18.5391C8.88672 18.5391 6.98828 16.6406 6.98828 14.25C6.98828 11.8945 8.88672 9.99609 11.1719 9.99609C12.5078 9.99609 13.3867 10.5586 13.8789 11.0508L15.707 9.29297C14.5117 8.16797 13 7.5 11.1719 7.5C7.44531 7.5 4.42188 10.5234 4.42188 14.25C4.42188 18.0117 7.44531 21 11.1719 21C15.0742 21 17.6758 18.293 17.6758 14.4258C17.6758 13.9688 17.6055 13.6523 17.5703 13.3008ZM24.0742 13.5117V11.5781H22.1055V13.5117H20.1367V15.4805H22.1055V17.4492H24.0742V15.4805H26.043V13.5117H24.0742Z" fill="#46B19D"/>
<rect x="0.5" y="0.5" width="29" height="29" rx="3.5" stroke="#212121"/>
</svg>
